<?xml version="1.0" encoding="utf-8" standalone="no"?>
<!DOCTYPE svg PUBLIC "-//W3C//DTD SVG 1.1//EN"
  "http://www.w3.org/Graphics/SVG/1.1/DTD/svg11.dtd">
<svg xmlns:xlink="http://www.w3.org/1999/xlink" width="792pt" height="432pt" viewBox="0 0 792 432" xmlns="http://www.w3.org/2000/svg" version="1.1">
 <metadata>
  <rdf:RDF xmlns:dc="http://purl.org/dc/elements/1.1/" xmlns:cc="http://creativecommons.org/ns#" xmlns:rdf="http://www.w3.org/1999/02/22-rdf-syntax-ns#">
   <cc:Work>
    <dc:type rdf:resource="http://purl.org/dc/dcmitype/StillImage"/>
    <dc:date>2026-10-08T16:47:10.783520</dc:date>
    <dc:format>image/svg+xml</dc:format>
    <dc:creator>
     <cc:Agent>
      <dc:title>Matplotlib v3.11.2, https://matplotlib.org/</dc:title>
     </cc:Agent>
    </dc:creator>
   </cc:Work>
  </rdf:RDF>
 </metadata>
 <defs>
  <style type="text/css">*{stroke-linejoin: round; stroke-linecap: butt}</style>
 </defs>
 <g id="figure_1">
  <g id="patch_1">
   <path d="M 0 432 
L 792 432 
L 792 0 
L 0 0 
z
" style="fill: #ffffff"/>
  </g>
  <g id="axes_1">
   <g id="patch_2">
    <path d="M 66.682344 390.2 
L 781.139062 390.2 
L 781.139062 26.16 
L 66.682344 26.16 
z
" style="fill: #ffffff"/>
   </g>
   <g id="matplotlib.axis_1">
    <g id="xtick_1">
     <g id="line2d_1">
      <defs>
       <path id="macfe6d7394" d="M 0 0 
L 0 3.5 
" style="stroke: #000000; stroke-width: 0.8"/>
      </defs>
      <g>
       <use xlink:href="#macfe6d7394" x="98.751581" y="390.2" style="stroke: #000000; stroke-width: 0.8"/>
      </g>
     </g>
     <g id="text_1">
      <!-- 2018 -->
      <g transform="translate(86.026581 404.797656) scale(0.1 -0.1)">
       <defs>
        <path id="DejaVuSans-15" d="M 1228 531 
L 3431 531 
L 3431 0 
L 469 0 
L 469 531 
Q 828 903 1448 1529 
Q 2069 2156 2228 2338 
Q 2531 2678 2651 2914 
Q 2772 3150 2772 3378 
Q 2772 3750 2511 3984 
Q 2250 4219 1831 4219 
Q 1534 4219 1204 4116 
Q 875 4013 500 3803 
L 500 4441 
Q 881 4594 1212 4672 
Q 1544 4750 1819 4750 
Q 2544 4750 2975 4387 
Q 3406 4025 3406 3419 
Q 3406 3131 3298 2873 
Q 3191 2616 2906 2266 
Q 2828 2175 2409 1742 
Q 1991 1309 1228 531 
z
" transform="scale(0.015625)"/>
        <path id="DejaVuSans-13" d="M 2034 4250 
Q 1547 4250 1301 3770 
Q 1056 3291 1056 2328 
Q 1056 1369 1301 889 
Q 1547 409 2034 409 
Q 2525 409 2770 889 
Q 3016 1369 3016 2328 
Q 3016 3291 2770 3770 
Q 2525 4250 2034 4250 
z
M 2034 4750 
Q 2819 4750 3233 4129 
Q 3647 3509 3647 2328 
Q 3647 1150 3233 529 
Q 2819 -91 2034 -91 
Q 1250 -91 836 529 
Q 422 1150 422 2328 
Q 422 3509 836 4129 
Q 1250 4750 2034 4750 
z
" transform="scale(0.015625)"/>
        <path id="DejaVuSans-14" d="M 794 531 
L 1825 531 
L 1825 4091 
L 703 3866 
L 703 4441 
L 1819 4666 
L 2450 4666 
L 2450 531 
L 3481 531 
L 3481 0 
L 794 0 
L 794 531 
z
" transform="scale(0.015625)"/>
        <path id="DejaVuSans-1b" d="M 2034 2216 
Q 1584 2216 1326 1975 
Q 1069 1734 1069 1313 
Q 1069 891 1326 650 
Q 1584 409 2034 409 
Q 2484 409 2743 651 
Q 3003 894 3003 1313 
Q 3003 1734 2745 1975 
Q 2488 2216 2034 2216 
z
M 1403 2484 
Q 997 2584 770 2862 
Q 544 3141 544 3541 
Q 544 4100 942 4425 
Q 1341 4750 2034 4750 
Q 2731 4750 3128 4425 
Q 3525 4100 3525 3541 
Q 3525 3141 3298 2862 
Q 3072 2584 2669 2484 
Q 3125 2378 3379 2068 
Q 3634 1759 3634 1313 
Q 3634 634 3220 271 
Q 2806 -91 2034 -91 
Q 1263 -91 848 271 
Q 434 634 434 1313 
Q 434 1759 690 2068 
Q 947 2378 1403 2484 
z
M 1172 3481 
Q 1172 3119 1398 2916 
Q 1625 2713 2034 2713 
Q 2441 2713 2670 2916 
Q 2900 3119 2900 3481 
Q 2900 3844 2670 4047 
Q 2441 4250 2034 4250 
Q 1625 4250 1398 4047 
Q 1172 3844 1172 3481 
z
" transform="scale(0.015625)"/>
       </defs>
       <use xlink:href="#DejaVuSans-15"/>
       <use xlink:href="#DejaVuSans-13" transform="translate(63.625 0)"/>
       <use xlink:href="#DejaVuSans-14" transform="translate(127.25 0)"/>
       <use xlink:href="#DejaVuSans-1b" transform="translate(190.875 0)"/>
      </g>
     </g>
    </g>
    <g id="xtick_2">
     <g id="line2d_2">
      <g>
       <use xlink:href="#macfe6d7394" x="172.85903" y="390.2" style="stroke: #000000; stroke-width: 0.8"/>
      </g>
     </g>
     <g id="text_2">
      <!-- 2019 -->
      <g transform="translate(160.13403 404.797656) scale(0.1 -0.1)">
       <defs>
        <path id="DejaVuSans-1c" d="M 703 97 
L 703 672 
Q 941 559 1184 500 
Q 1428 441 1663 441 
Q 2288 441 2617 861 
Q 2947 1281 2994 2138 
Q 2813 1869 2534 1725 
Q 2256 1581 1919 1581 
Q 1219 1581 811 2004 
Q 403 2428 403 3163 
Q 403 3881 828 4315 
Q 1253 4750 1959 4750 
Q 2769 4750 3195 4129 
Q 3622 3509 3622 2328 
Q 3622 1225 3098 567 
Q 2575 -91 1691 -91 
Q 1453 -91 1209 -44 
Q 966 3 703 97 
z
M 1959 2075 
Q 2384 2075 2632 2365 
Q 2881 2656 2881 3163 
Q 2881 3666 2632 3958 
Q 2384 4250 1959 4250 
Q 1534 4250 1286 3958 
Q 1038 3666 1038 3163 
Q 1038 2656 1286 2365 
Q 1534 2075 1959 2075 
z
" transform="scale(0.015625)"/>
       </defs>
       <use xlink:href="#DejaVuSans-15"/>
       <use xlink:href="#DejaVuSans-13" transform="translate(63.625 0)"/>
       <use xlink:href="#DejaVuSans-14" transform="translate(127.25 0)"/>
       <use xlink:href="#DejaVuSans-1c" transform="translate(190.875 0)"/>
      </g>
     </g>
    </g>
    <g id="xtick_3">
     <g id="line2d_3">
      <g>
       <use xlink:href="#macfe6d7394" x="246.966479" y="390.2" style="stroke: #000000; stroke-width: 0.8"/>
      </g>
     </g>
     <g id="text_3">
      <!-- 2020 -->
      <g transform="translate(234.241479 404.797656) scale(0.1 -0.1)">
       <use xlink:href="#DejaVuSans-15"/>
       <use xlink:href="#DejaVuSans-13" transform="translate(63.625 0)"/>
       <use xlink:href="#DejaVuSans-15" transform="translate(127.25 0)"/>
       <use xlink:href="#DejaVuSans-13" transform="translate(190.875 0)"/>
      </g>
     </g>
    </g>
    <g id="xtick_4">
     <g id="line2d_4">
      <g>
       <use xlink:href="#macfe6d7394" x="321.276962" y="390.2" style="stroke: #000000; stroke-width: 0.8"/>
      </g>
     </g>
     <g id="text_4">
      <!-- 2021 -->
      <g transform="translate(308.551962 404.797656) scale(0.1 -0.1)">
       <use xlink:href="#DejaVuSans-15"/>
       <use xlink:href="#DejaVuSans-13" transform="translate(63.625 0)"/>
       <use xlink:href="#DejaVuSans-15" transform="translate(127.25 0)"/>
       <use xlink:href="#DejaVuSans-14" transform="translate(190.875 0)"/>
      </g>
     </g>
    </g>
    <g id="xtick_5">
     <g id="line2d_5">
      <g>
       <use xlink:href="#macfe6d7394" x="395.384411" y="390.2" style="stroke: #000000; stroke-width: 0.8"/>
      </g>
     </g>
     <g id="text_5">
      <!-- 2022 -->
      <g transform="translate(382.659411 404.797656) scale(0.1 -0.1)">
       <use xlink:href="#DejaVuSans-15"/>
       <use xlink:href="#DejaVuSans-13" transform="translate(63.625 0)"/>
       <use xlink:href="#DejaVuSans-15" transform="translate(127.25 0)"/>
       <use xlink:href="#DejaVuSans-15" transform="translate(190.875 0)"/>
      </g>
     </g>
    </g>
    <g id="xtick_6">
     <g id="line2d_6">
      <g>
       <use xlink:href="#macfe6d7394" x="469.49186" y="390.2" style="stroke: #000000; stroke-width: 0.8"/>
      </g>
     </g>
     <g id="text_6">
      <!-- 2023 -->
      <g transform="translate(456.76686 404.797656) scale(0.1 -0.1)">
       <defs>
        <path id="DejaVuSans-16" d="M 2597 2516 
Q 3050 2419 3304 2112 
Q 3559 1806 3559 1356 
Q 3559 666 3084 287 
Q 2609 -91 1734 -91 
Q 1441 -91 1130 -33 
Q 819 25 488 141 
L 488 750 
Q 750 597 1062 519 
Q 1375 441 1716 441 
Q 2309 441 2620 675 
Q 2931 909 2931 1356 
Q 2931 1769 2642 2001 
Q 2353 2234 1838 2234 
L 1294 2234 
L 1294 2753 
L 1863 2753 
Q 2328 2753 2575 2939 
Q 2822 3125 2822 3475 
Q 2822 3834 2567 4026 
Q 2313 4219 1838 4219 
Q 1578 4219 1281 4162 
Q 984 4106 628 3988 
L 628 4550 
Q 988 4650 1302 4700 
Q 1616 4750 1894 4750 
Q 2613 4750 3031 4423 
Q 3450 4097 3450 3541 
Q 3450 3153 3228 2886 
Q 3006 2619 2597 2516 
z
" transform="scale(0.015625)"/>
       </defs>
       <use xlink:href="#DejaVuSans-15"/>
       <use xlink:href="#DejaVuSans-13" transform="translate(63.625 0)"/>
       <use xlink:href="#DejaVuSans-15" transform="translate(127.25 0)"/>
       <use xlink:href="#DejaVuSans-16" transform="translate(190.875 0)"/>
      </g>
     </g>
    </g>
    <g id="xtick_7">
     <g id="line2d_7">
      <g>
       <use xlink:href="#macfe6d7394" x="543.599309" y="390.2" style="stroke: #000000; stroke-width: 0.8"/>
      </g>
     </g>
     <g id="text_7">
      <!-- 2024 -->
      <g transform="translate(530.874309 404.797656) scale(0.1 -0.1)">
       <defs>
        <path id="DejaVuSans-17" d="M 2419 4116 
L 825 1625 
L 2419 1625 
L 2419 4116 
z
M 2253 4666 
L 3047 4666 
L 3047 1625 
L 3713 1625 
L 3713 1100 
L 3047 1100 
L 3047 0 
L 2419 0 
L 2419 1100 
L 313 1100 
L 313 1709 
L 2253 4666 
z
" transform="scale(0.015625)"/>
       </defs>
       <use xlink:href="#DejaVuSans-15"/>
       <use xlink:href="#DejaVuSans-13" transform="translate(63.625 0)"/>
       <use xlink:href="#DejaVuSans-15" transform="translate(127.25 0)"/>
       <use xlink:href="#DejaVuSans-17" transform="translate(190.875 0)"/>
      </g>
     </g>
    </g>
    <g id="xtick_8">
     <g id="line2d_8">
      <g>
       <use xlink:href="#macfe6d7394" x="617.909792" y="390.2" style="stroke: #000000; stroke-width: 0.8"/>
      </g>
     </g>
     <g id="text_8">
      <!-- 2025 -->
      <g transform="translate(605.184792 404.797656) scale(0.1 -0.1)">
       <defs>
        <path id="DejaVuSans-18" d="M 691 4666 
L 3169 4666 
L 3169 4134 
L 1269 4134 
L 1269 2991 
Q 1406 3038 1543 3061 
Q 1681 3084 1819 3084 
Q 2600 3084 3056 2656 
Q 3513 2228 3513 1497 
Q 3513 744 3044 326 
Q 2575 -91 1722 -91 
Q 1428 -91 1123 -41 
Q 819 9 494 109 
L 494 744 
Q 775 591 1075 516 
Q 1375 441 1709 441 
Q 2250 441 2565 725 
Q 2881 1009 2881 1497 
Q 2881 1984 2565 2268 
Q 2250 2553 1709 2553 
Q 1456 2553 1204 2497 
Q 953 2441 691 2322 
L 691 4666 
z
" transform="scale(0.015625)"/>
       </defs>
       <use xlink:href="#DejaVuSans-15"/>
       <use xlink:href="#DejaVuSans-13" transform="translate(63.625 0)"/>
       <use xlink:href="#DejaVuSans-15" transform="translate(127.25 0)"/>
       <use xlink:href="#DejaVuSans-18" transform="translate(190.875 0)"/>
      </g>
     </g>
    </g>
    <g id="xtick_9">
     <g id="line2d_9">
      <g>
       <use xlink:href="#macfe6d7394" x="692.017241" y="390.2" style="stroke: #000000; stroke-width: 0.8"/>
      </g>
     </g>
     <g id="text_9">
      <!-- 2026 -->
      <g transform="translate(679.292241 404.797656) scale(0.1 -0.1)">
       <defs>
        <path id="DejaVuSans-19" d="M 2113 2584 
Q 1688 2584 1439 2293 
Q 1191 2003 1191 1497 
Q 1191 994 1439 701 
Q 1688 409 2113 409 
Q 2538 409 2786 701 
Q 3034 994 3034 1497 
Q 3034 2003 2786 2293 
Q 2538 2584 2113 2584 
z
M 3366 4563 
L 3366 3988 
Q 3128 4100 2886 4159 
Q 2644 4219 2406 4219 
Q 1781 4219 1451 3797 
Q 1122 3375 1075 2522 
Q 1259 2794 1537 2939 
Q 1816 3084 2150 3084 
Q 2853 3084 3261 2657 
Q 3669 2231 3669 1497 
Q 3669 778 3244 343 
Q 2819 -91 2113 -91 
Q 1303 -91 875 529 
Q 447 1150 447 2328 
Q 447 3434 972 4092 
Q 1497 4750 2381 4750 
Q 2619 4750 2861 4703 
Q 3103 4656 3366 4563 
z
" transform="scale(0.015625)"/>
       </defs>
       <use xlink:href="#DejaVuSans-15"/>
       <use xlink:href="#DejaVuSans-13" transform="translate(63.625 0)"/>
       <use xlink:href="#DejaVuSans-15" transform="translate(127.25 0)"/>
       <use xlink:href="#DejaVuSans-19" transform="translate(190.875 0)"/>
      </g>
     </g>
    </g>
    <g id="xtick_10">
     <g id="line2d_10">
      <g>
       <use xlink:href="#macfe6d7394" x="766.12469" y="390.2" style="stroke: #000000; stroke-width: 0.8"/>
      </g>
     </g>
     <g id="text_10">
      <!-- 2027 -->
      <g transform="translate(753.39969 404.797656) scale(0.1 -0.1)">
       <defs>
        <path id="DejaVuSans-1a" d="M 525 4666 
L 3525 4666 
L 3525 4397 
L 1831 0 
L 1172 0 
L 2766 4134 
L 525 4134 
L 525 4666 
z
" transform="scale(0.015625)"/>
       </defs>
       <use xlink:href="#DejaVuSans-15"/>
       <use xlink:href="#DejaVuSans-13" transform="translate(63.625 0)"/>
       <use xlink:href="#DejaVuSans-15" transform="translate(127.25 0)"/>
       <use xlink:href="#DejaVuSans-1a" transform="translate(190.875 0)"/>
      </g>
     </g>
    </g>
    <g id="text_11">
     <!-- Date -->
     <g transform="translate(411.959922 418.797656) scale(0.1 -0.1)">
      <defs>
       <path id="DejaVuSans-27" d="M 1259 4147 
L 1259 519 
L 2022 519 
Q 2988 519 3436 956 
Q 3884 1394 3884 2338 
Q 3884 3275 3436 3711 
Q 2988 4147 2022 4147 
L 1259 4147 
z
M 628 4666 
L 1925 4666 
Q 3281 4666 3915 4102 
Q 4550 3538 4550 2338 
Q 4550 1131 3912 565 
Q 3275 0 1925 0 
L 628 0 
L 628 4666 
z
" transform="scale(0.015625)"/>
       <path id="DejaVuSans-44" d="M 2194 1759 
Q 1497 1759 1228 1600 
Q 959 1441 959 1056 
Q 959 750 1161 570 
Q 1363 391 1709 391 
Q 2188 391 2477 730 
Q 2766 1069 2766 1631 
L 2766 1759 
L 2194 1759 
z
M 3341 1997 
L 3341 0 
L 2766 0 
L 2766 531 
Q 2569 213 2275 61 
Q 1981 -91 1556 -91 
Q 1019 -91 701 211 
Q 384 513 384 1019 
Q 384 1609 779 1909 
Q 1175 2209 1959 2209 
L 2766 2209 
L 2766 2266 
Q 2766 2663 2505 2880 
Q 2244 3097 1772 3097 
Q 1472 3097 1187 3025 
Q 903 2953 641 2809 
L 641 3341 
Q 956 3463 1253 3523 
Q 1550 3584 1831 3584 
Q 2591 3584 2966 3190 
Q 3341 2797 3341 1997 
z
" transform="scale(0.015625)"/>
       <path id="DejaVuSans-57" d="M 1172 4494 
L 1172 3500 
L 2356 3500 
L 2356 3053 
L 1172 3053 
L 1172 1153 
Q 1172 725 1289 603 
Q 1406 481 1766 481 
L 2356 481 
L 2356 0 
L 1766 0 
Q 1100 0 847 248 
Q 594 497 594 1153 
L 594 3053 
L 172 3053 
L 172 3500 
L 594 3500 
L 594 4494 
L 1172 4494 
z
" transform="scale(0.015625)"/>
       <path id="DejaVuSans-48" d="M 3597 1894 
L 3597 1613 
L 953 1613 
Q 991 1019 1311 708 
Q 1631 397 2203 397 
Q 2534 397 2845 478 
Q 3156 559 3463 722 
L 3463 178 
Q 3153 47 2828 -22 
Q 2503 -91 2169 -91 
Q 1331 -91 842 396 
Q 353 884 353 1716 
Q 353 2575 817 3079 
Q 1281 3584 2069 3584 
Q 2775 3584 3186 3129 
Q 3597 2675 3597 1894 
z
M 3022 2063 
Q 3016 2534 2758 2815 
Q 2500 3097 2075 3097 
Q 1594 3097 1305 2825 
Q 1016 2553 972 2059 
L 3022 2063 
z
" transform="scale(0.015625)"/>
      </defs>
      <use xlink:href="#DejaVuSans-27"/>
      <use xlink:href="#DejaVuSans-44" transform="translate(77 0)"/>
      <use xlink:href="#DejaVuSans-57" transform="translate(138.28125 0)"/>
      <use xlink:href="#DejaVuSans-48" transform="translate(177.484375 0)"/>
     </g>
    </g>
   </g>
   <g id="matplotlib.axis_2">
    <g id="ytick_1">
     <g id="line2d_11">
      <defs>
       <path id="ma46f7bc8cf" d="M 0 0 
L -3.5 0 
" style="stroke: #000000; stroke-width: 0.8"/>
      </defs>
      <g>
       <use xlink:href="#ma46f7bc8cf" x="66.682344" y="362.157412" style="stroke: #000000; stroke-width: 0.8"/>
      </g>
     </g>
     <g id="text_12">
      <!-- −1500 -->
      <g transform="translate(25.852656 365.95624) scale(0.1 -0.1)">
       <defs>
        <path id="DejaVuSans-c9c" d="M 678 2272 
L 4684 2272 
L 4684 1741 
L 678 1741 
L 678 2272 
z
" transform="scale(0.015625)"/>
       </defs>
       <use xlink:href="#DejaVuSans-c9c"/>
       <use xlink:href="#DejaVuSans-14" transform="translate(83.796875 0)"/>
       <use xlink:href="#DejaVuSans-18" transform="translate(147.421875 0)"/>
       <use xlink:href="#DejaVuSans-13" transform="translate(211.046875 0)"/>
       <use xlink:href="#DejaVuSans-13" transform="translate(274.671875 0)"/>
      </g>
     </g>
    </g>
    <g id="ytick_2">
     <g id="line2d_12">
      <g>
       <use xlink:href="#ma46f7bc8cf" x="66.682344" y="311.118853" style="stroke: #000000; stroke-width: 0.8"/>
      </g>
     </g>
     <g id="text_13">
      <!-- −1000 -->
      <g transform="translate(25.852656 314.917681) scale(0.1 -0.1)">
       <use xlink:href="#DejaVuSans-c9c"/>
       <use xlink:href="#DejaVuSans-14" transform="translate(83.796875 0)"/>
       <use xlink:href="#DejaVuSans-13" transform="translate(147.421875 0)"/>
       <use xlink:href="#DejaVuSans-13" transform="translate(211.046875 0)"/>
       <use xlink:href="#DejaVuSans-13" transform="translate(274.671875 0)"/>
      </g>
     </g>
    </g>
    <g id="ytick_3">
     <g id="line2d_13">
      <g>
       <use xlink:href="#ma46f7bc8cf" x="66.682344" y="260.080294" style="stroke: #000000; stroke-width: 0.8"/>
      </g>
     </g>
     <g id="text_14">
      <!-- −500 -->
      <g transform="translate(32.215156 263.879122) scale(0.1 -0.1)">
       <use xlink:href="#DejaVuSans-c9c"/>
       <use xlink:href="#DejaVuSans-18" transform="translate(83.796875 0)"/>
       <use xlink:href="#DejaVuSans-13" transform="translate(147.421875 0)"/>
       <use xlink:href="#DejaVuSans-13" transform="translate(211.046875 0)"/>
      </g>
     </g>
    </g>
    <g id="ytick_4">
     <g id="line2d_14">
      <g>
       <use xlink:href="#ma46f7bc8cf" x="66.682344" y="209.041735" style="stroke: #000000; stroke-width: 0.8"/>
      </g>
     </g>
     <g id="text_15">
      <!-- 0 -->
      <g transform="translate(53.319844 212.840563) scale(0.1 -0.1)">
       <use xlink:href="#DejaVuSans-13"/>
      </g>
     </g>
    </g>
    <g id="ytick_5">
     <g id="line2d_15">
      <g>
       <use xlink:href="#ma46f7bc8cf" x="66.682344" y="158.003176" style="stroke: #000000; stroke-width: 0.8"/>
      </g>
     </g>
     <g id="text_16">
      <!-- 500 -->
      <g transform="translate(40.594844 161.802004) scale(0.1 -0.1)">
       <use xlink:href="#DejaVuSans-18"/>
       <use xlink:href="#DejaVuSans-13" transform="translate(63.625 0)"/>
       <use xlink:href="#DejaVuSans-13" transform="translate(127.25 0)"/>
      </g>
     </g>
    </g>
    <g id="ytick_6">
     <g id="line2d_16">
      <g>
       <use xlink:href="#ma46f7bc8cf" x="66.682344" y="106.964617" style="stroke: #000000; stroke-width: 0.8"/>
      </g>
     </g>
     <g id="text_17">
      <!-- 1000 -->
      <g transform="translate(34.232344 110.763446) scale(0.1 -0.1)">
       <use xlink:href="#DejaVuSans-14"/>
       <use xlink:href="#DejaVuSans-13" transform="translate(63.625 0)"/>
       <use xlink:href="#DejaVuSans-13" transform="translate(127.25 0)"/>
       <use xlink:href="#DejaVuSans-13" transform="translate(190.875 0)"/>
      </g>
     </g>
    </g>
    <g id="ytick_7">
     <g id="line2d_17">
      <g>
       <use xlink:href="#ma46f7bc8cf" x="66.682344" y="55.926059" style="stroke: #000000; stroke-width: 0.8"/>
      </g>
     </g>
     <g id="text_18">
      <!-- 1500 -->
      <g transform="translate(34.232344 59.724887) scale(0.1 -0.1)">
       <use xlink:href="#DejaVuSans-14"/>
       <use xlink:href="#DejaVuSans-18" transform="translate(63.625 0)"/>
       <use xlink:href="#DejaVuSans-13" transform="translate(127.25 0)"/>
       <use xlink:href="#DejaVuSans-13" transform="translate(190.875 0)"/>
      </g>
     </g>
    </g>
    <g id="text_19">
     <!-- P&amp;L ($000) -->
     <g transform="translate(19.450313 236.095625) rotate(-90) scale(0.1 -0.1)">
      <defs>
       <path id="DejaVuSans-33" d="M 1259 4147 
L 1259 2394 
L 2053 2394 
Q 2494 2394 2734 2622 
Q 2975 2850 2975 3272 
Q 2975 3691 2734 3919 
Q 2494 4147 2053 4147 
L 1259 4147 
z
M 628 4666 
L 2053 4666 
Q 2838 4666 3239 4311 
Q 3641 3956 3641 3272 
Q 3641 2581 3239 2228 
Q 2838 1875 2053 1875 
L 1259 1875 
L 1259 0 
L 628 0 
L 628 4666 
z
" transform="scale(0.015625)"/>
       <path id="DejaVuSans-9" d="M 1556 2509 
Q 1272 2256 1139 2004 
Q 1006 1753 1006 1478 
Q 1006 1022 1337 719 
Q 1669 416 2169 416 
Q 2466 416 2725 514 
Q 2984 613 3213 813 
L 1556 2509 
z
M 1997 2859 
L 3584 1234 
Q 3769 1513 3872 1830 
Q 3975 2147 3994 2503 
L 4575 2503 
Q 4538 2091 4375 1687 
Q 4213 1284 3922 891 
L 4794 0 
L 4006 0 
L 3559 459 
Q 3234 181 2878 45 
Q 2522 -91 2113 -91 
Q 1359 -91 881 339 
Q 403 769 403 1441 
Q 403 1841 612 2192 
Q 822 2544 1241 2853 
Q 1091 3050 1012 3245 
Q 934 3441 934 3628 
Q 934 4134 1281 4442 
Q 1628 4750 2203 4750 
Q 2463 4750 2720 4694 
Q 2978 4638 3244 4525 
L 3244 3956 
Q 2972 4103 2725 4179 
Q 2478 4256 2266 4256 
Q 1938 4256 1733 4082 
Q 1528 3909 1528 3634 
Q 1528 3475 1620 3314 
Q 1713 3153 1997 2859 
z
" transform="scale(0.015625)"/>
       <path id="DejaVuSans-2f" d="M 628 4666 
L 1259 4666 
L 1259 531 
L 3531 531 
L 3531 0 
L 628 0 
L 628 4666 
z
" transform="scale(0.015625)"/>
       <path id="DejaVuSans-3" transform="scale(0.015625)"/>
       <path id="DejaVuSans-b" d="M 1984 4856 
Q 1566 4138 1362 3434 
Q 1159 2731 1159 2009 
Q 1159 1288 1364 580 
Q 1569 -128 1984 -844 
L 1484 -844 
Q 1016 -109 783 600 
Q 550 1309 550 2009 
Q 550 2706 781 3412 
Q 1013 4119 1484 4856 
L 1984 4856 
z
" transform="scale(0.015625)"/>
       <path id="DejaVuSans-7" d="M 2163 -941 
L 1850 -941 
L 1847 0 
Q 1519 6 1191 76 
Q 863 147 531 288 
L 531 850 
Q 850 650 1176 548 
Q 1503 447 1850 444 
L 1850 1869 
Q 1159 1981 845 2250 
Q 531 2519 531 2988 
Q 531 3497 872 3790 
Q 1213 4084 1850 4128 
L 1850 4863 
L 2163 4863 
L 2163 4138 
Q 2453 4125 2725 4076 
Q 2997 4028 3256 3944 
L 3256 3397 
Q 2997 3528 2723 3600 
Q 2450 3672 2163 3684 
L 2163 2350 
Q 2872 2241 3206 1959 
Q 3541 1678 3541 1191 
Q 3541 663 3186 358 
Q 2831 53 2163 6 
L 2163 -941 
z
M 1850 2406 
L 1850 3688 
Q 1488 3647 1297 3481 
Q 1106 3316 1106 3041 
Q 1106 2772 1282 2622 
Q 1459 2472 1850 2406 
z
M 2163 1806 
L 2163 453 
Q 2559 506 2761 678 
Q 2963 850 2963 1131 
Q 2963 1406 2770 1568 
Q 2578 1731 2163 1806 
z
" transform="scale(0.015625)"/>
       <path id="DejaVuSans-c" d="M 513 4856 
L 1013 4856 
Q 1481 4119 1714 3412 
Q 1947 2706 1947 2009 
Q 1947 1309 1714 600 
Q 1481 -109 1013 -844 
L 513 -844 
Q 928 -128 1133 580 
Q 1338 1288 1338 2009 
Q 1338 2731 1133 3434 
Q 928 4138 513 4856 
z
" transform="scale(0.015625)"/>
      </defs>
      <use xlink:href="#DejaVuSans-33"/>
      <use xlink:href="#DejaVuSans-9" transform="translate(60.296875 0)"/>
      <use xlink:href="#DejaVuSans-2f" transform="translate(138.28125 0)"/>
      <use xlink:href="#DejaVuSans-3" transform="translate(194 0)"/>
      <use xlink:href="#DejaVuSans-b" transform="translate(225.78125 0)"/>
      <use xlink:href="#DejaVuSans-7" transform="translate(264.796875 0)"/>
      <use xlink:href="#DejaVuSans-13" transform="translate(328.421875 0)"/>
      <use xlink:href="#DejaVuSans-13" transform="translate(392.046875 0)"/>
      <use xlink:href="#DejaVuSans-13" transform="translate(455.671875 0)"/>
      <use xlink:href="#DejaVuSans-c" transform="translate(519.296875 0)"/>
     </g>
    </g>
   </g>
   <g id="line2d_18">
    <path d="M 99.157649 209.393286 
L 99.360683 208.203887 
L 99.563717 208.210629 
L 100.17282 208.097923 
L 100.375854 209.973908 
L 100.578888 207.495262 
L 100.781922 208.53462 
L 100.984956 208.938214 
L 101.797093 208.909459 
L 102.203161 210.937929 
L 102.406195 208.970078 
L 103.015297 210.024734 
L 103.218331 209.744845 
L 103.421365 207.068379 
L 103.624399 209.660936 
L 103.827434 209.90776 
L 104.436536 209.240183 
L 104.63957 207.48179 
L 104.842604 209.26772 
L 105.045638 205.670736 
L 105.857775 209.391443 
L 106.060809 206.340167 
L 106.466877 210.487142 
L 106.669911 206.618832 
L 107.279013 206.210937 
L 107.482048 209.845289 
L 107.685082 209.135449 
L 107.888116 209.039278 
L 108.09115 210.101296 
L 108.903286 209.05827 
L 109.10632 210.512869 
L 109.309354 207.298665 
L 109.512389 211.038987 
L 110.121491 210.207243 
L 110.527559 207.200659 
L 110.730593 221.720319 
L 110.933627 208.421319 
L 111.54273 208.605056 
L 111.745764 209.078483 
L 111.948798 210.296665 
L 112.151832 207.878671 
L 112.354866 207.479338 
L 112.963968 209.302037 
L 113.370037 212.10037 
L 113.573071 208.628944 
L 113.776105 208.139568 
L 114.385207 207.892756 
L 114.588241 210.275839 
L 114.791275 209.915134 
L 114.994309 210.994236 
L 115.197344 207.380153 
L 115.806446 207.917239 
L 116.00948 210.543488 
L 116.212514 211.217222 
L 116.415548 208.450073 
L 117.227685 208.443988 
L 117.430719 208.831047 
L 117.633753 208.943126 
L 117.836787 208.898419 
L 118.039821 210.465705 
L 118.648923 209.069919 
L 118.851957 210.427113 
L 119.258026 206.779913 
L 119.46106 209.690931 
L 120.070162 209.156283 
L 120.47623 206.851559 
L 120.679264 211.157794 
L 120.882299 210.935483 
L 121.491401 211.396634 
L 121.694435 208.880667 
L 121.897469 207.884168 
L 122.100503 211.579784 
L 122.303537 210.179085 
L 122.91264 208.507054 
L 123.115674 206.614549 
L 123.521742 207.793553 
L 123.724776 209.134216 
L 124.333878 208.992726 
L 124.536912 211.047559 
L 124.739947 210.050459 
L 125.146015 211.011438 
L 125.755117 210.406296 
L 125.958151 208.338622 
L 126.161185 213.223649 
L 126.364219 208.955976 
L 126.567254 208.188574 
L 127.176356 208.447032 
L 127.37939 210.819108 
L 127.582424 209.475348 
L 127.785458 209.265285 
L 127.988492 210.775633 
L 128.800629 208.340436 
L 129.003663 209.911453 
L 129.206697 208.847581 
L 129.409731 210.711926 
L 130.018833 209.466779 
L 130.221867 204.827383 
L 130.627936 211.432196 
L 130.83097 209.05888 
L 131.440072 206.893214 
L 131.643106 207.006519 
L 131.84614 212.210017 
L 132.049174 204.211855 
L 132.861311 211.226997 
L 133.064345 209.578248 
L 133.267379 203.655123 
L 133.470413 208.577496 
L 133.673447 207.093478 
L 134.28255 207.871943 
L 134.485584 204.745922 
L 134.688618 209.338164 
L 134.891652 206.911603 
L 135.094686 212.192847 
L 135.703788 201.020307 
L 135.906822 209.88694 
L 136.312891 214.341375 
L 136.515925 204.18306 
L 137.125027 213.488833 
L 137.531095 206.796448 
L 137.734129 211.034076 
L 137.937164 210.401998 
L 138.546266 205.724039 
L 138.7493 211.707163 
L 139.155368 206.812376 
L 139.358402 208.778988 
L 139.967505 219.415624 
L 140.170539 208.098551 
L 140.373573 209.808531 
L 140.576607 212.555441 
L 141.388743 205.172209 
L 141.591777 208.885551 
L 141.794812 203.728602 
L 141.997846 208.507681 
L 142.20088 210.04802 
L 142.809982 207.94664 
L 143.013016 213.164855 
L 143.21605 206.335854 
L 143.419084 207.596339 
L 143.622119 211.092262 
L 144.231221 208.142024 
L 144.434255 210.839309 
L 144.637289 210.46938 
L 144.840323 207.063493 
L 145.043357 207.183512 
L 145.65246 211.050618 
L 145.855494 206.884644 
L 146.058528 213.692162 
L 146.261562 208.683443 
L 147.073698 210.130093 
L 147.276732 208.998261 
L 147.682801 210.256883 
L 147.885835 210.136793 
L 148.697971 196.583022 
L 148.901005 209.176482 
L 149.104039 209.678712 
L 149.307074 211.122264 
L 149.916176 208.741623 
L 150.11921 209.987384 
L 150.322244 207.622652 
L 150.525278 209.43373 
L 150.728312 205.257313 
L 151.337415 209.732578 
L 151.540449 209.828766 
L 151.743483 206.974661 
L 151.946517 208.701211 
L 152.758653 210.852763 
L 152.961687 210.375684 
L 153.164722 210.191334 
L 153.367756 210.40569 
L 153.57079 208.423765 
L 154.179892 207.424214 
L 154.382926 209.191772 
L 154.58596 207.631853 
L 154.788994 210.596777 
L 154.992029 207.467733 
L 155.601131 209.927949 
L 155.804165 206.861373 
L 156.007199 208.396826 
L 156.210233 205.570898 
L 156.413267 208.23881 
L 157.02237 208.080164 
L 157.225404 212.064236 
L 157.428438 209.414716 
L 157.631472 209.34919 
L 157.834506 209.861821 
L 158.443608 208.961513 
L 158.646642 208.450699 
L 158.849677 206.762762 
L 159.052711 207.78863 
L 159.255745 209.493145 
L 159.864847 210.773156 
L 160.067881 208.995792 
L 160.270915 208.541981 
L 160.473949 206.971607 
L 160.676983 208.822472 
L 161.286086 208.765518 
L 161.48912 211.604271 
L 161.692154 208.791854 
L 161.895188 208.888618 
L 162.098222 208.741022 
L 162.707325 210.412425 
L 162.910359 209.97452 
L 163.113393 210.293607 
L 163.316427 207.121047 
L 163.519461 210.773781 
L 164.128563 209.173423 
L 164.534632 205.778523 
L 165.549802 210.455296 
L 165.752836 207.086751 
L 166.158904 210.582694 
L 166.361938 209.566619 
L 166.971041 203.807622 
L 167.174075 209.726476 
L 167.580143 211.743302 
L 167.783177 211.3054 
L 168.39228 206.430809 
L 168.595314 208.971912 
L 168.798348 209.07236 
L 169.001382 210.7162 
L 169.204416 208.165914 
L 169.813518 210.23727 
L 170.016552 211.931332 
L 170.219587 211.379505 
L 170.422621 205.216903 
L 170.625655 208.84943 
L 171.234757 209.430655 
L 171.640825 207.799651 
L 171.843859 209.337559 
L 172.046893 208.157335 
L 172.655996 209.272632 
L 173.062064 206.593116 
L 173.265098 211.181673 
L 173.468132 207.397894 
L 174.077235 207.12105 
L 174.280269 209.136056 
L 174.483303 208.832271 
L 174.686337 209.876518 
L 174.889371 208.399873 
L 175.498473 208.018935 
L 175.904542 209.775467 
L 176.107576 210.544106 
L 176.31061 207.057978 
L 177.122746 207.770871 
L 177.32578 206.997948 
L 177.731848 207.751288 
L 178.340951 207.096543 
L 178.543985 209.089517 
L 178.747019 208.955377 
L 178.950053 207.868253 
L 179.153087 212.355783 
L 179.76219 210.56369 
L 179.965224 210.824621 
L 180.168258 211.44688 
L 180.371292 209.880193 
L 180.574326 210.906069 
L 181.183428 206.959972 
L 181.386462 208.257788 
L 181.792531 212.607496 
L 181.995565 213.038054 
L 182.807701 205.62848 
L 183.010735 210.45714 
L 183.213769 211.088585 
L 183.416803 207.625723 
L 184.025906 206.411202 
L 184.22894 213.529252 
L 184.635008 207.862739 
L 184.838042 221.085815 
L 185.447145 208.796143 
L 185.853213 211.926434 
L 186.056247 208.950481 
L 186.259281 209.978185 
L 186.868383 208.680378 
L 187.071417 207.532026 
L 187.274451 208.600758 
L 187.477486 207.035299 
L 187.68052 209.283051 
L 188.289622 209.504144 
L 188.492656 211.026121 
L 188.898724 207.999331 
L 189.101758 211.491577 
L 189.710861 211.366033 
L 190.116929 205.104201 
L 190.319963 207.672274 
L 190.522997 207.875604 
L 191.1321 205.514569 
L 191.538168 211.265592 
L 191.741202 209.458221 
L 191.944236 209.753399 
L 192.553338 207.284587 
L 192.959406 214.962419 
L 193.162441 208.037287 
L 193.365475 208.765516 
L 193.974577 207.965649 
L 194.177611 209.666427 
L 194.583679 210.986299 
L 195.395816 210.193794 
L 195.59885 207.958865 
L 195.801884 209.204057 
L 196.004918 211.407073 
L 196.817055 207.061634 
L 197.020089 212.377821 
L 197.223123 205.489455 
L 197.426157 209.884492 
L 197.629191 209.020911 
L 198.238293 205.417183 
L 198.441327 206.251345 
L 198.644361 209.889397 
L 198.847396 209.822005 
L 199.05043 210.630464 
L 199.659532 208.247983 
L 199.862566 208.769195 
L 200.0656 212.568292 
L 200.268634 212.230828 
L 200.471668 206.947738 
L 201.080771 203.85479 
L 201.283805 210.433232 
L 201.486839 210.141109 
L 201.892907 209.036216 
L 202.705044 210.292386 
L 202.908078 207.994419 
L 203.111112 207.878675 
L 203.314146 208.79798 
L 203.923248 203.089204 
L 204.329316 210.082311 
L 204.532351 207.879893 
L 204.735385 209.00314 
L 205.344487 209.746692 
L 205.547521 211.917856 
L 205.750555 207.735967 
L 205.953589 209.593567 
L 206.156623 210.395273 
L 206.765726 205.960431 
L 206.96876 206.846061 
L 207.171794 210.748058 
L 207.374828 206.901168 
L 207.577862 213.988601 
L 208.186964 207.203736 
L 208.593033 214.340148 
L 208.796067 206.041893 
L 208.999101 211.291311 
L 209.608203 206.508595 
L 209.811237 209.682986 
L 210.014271 210.213986 
L 210.42034 209.888774 
L 211.029442 205.748519 
L 211.232476 211.372153 
L 211.43551 211.240475 
L 211.638544 207.868266 
L 211.841578 208.003613 
L 212.450681 205.744837 
L 212.653715 209.740568 
L 212.856749 209.963494 
L 213.059783 208.467852 
L 213.262817 209.733201 
L 213.871919 206.579026 
L 214.074954 211.104505 
L 214.277988 210.746834 
L 214.481022 211.013867 
L 214.684056 207.560186 
L 215.293158 206.312602 
L 215.496192 209.732601 
L 215.699226 208.327588 
L 215.902261 205.801201 
L 216.105295 208.113857 
L 216.714397 204.226563 
L 216.917431 209.158087 
L 217.120465 208.039759 
L 217.323499 207.782501 
L 217.526533 206.812376 
L 218.135636 206.876063 
L 218.33867 211.566928 
L 218.744738 206.575957 
L 218.947772 209.656046 
L 219.556874 206.460196 
L 219.759909 210.984469 
L 219.962943 212.280435 
L 220.165977 207.111261 
L 220.369011 209.435547 
L 220.978113 207.415033 
L 221.384181 210.730301 
L 221.587216 206.948339 
L 221.79025 206.323626 
L 222.602386 199.27357 
L 222.80542 210.584529 
L 223.008454 210.398338 
L 223.211488 211.291924 
L 223.820591 207.035309 
L 224.023625 211.101444 
L 224.226659 211.102064 
L 224.429693 208.837778 
L 224.632727 209.472302 
L 225.241829 210.310757 
L 225.444864 209.276913 
L 225.647898 210.6176 
L 225.850932 214.022289 
L 226.053966 206.454696 
L 226.663068 208.279216 
L 226.866102 209.385934 
L 227.069136 208.409064 
L 227.272171 212.424989 
L 227.475205 209.153805 
L 228.084307 209.145857 
L 228.287341 207.440144 
L 228.490375 208.531563 
L 228.693409 210.643929 
L 228.896443 210.232976 
L 229.505546 209.259772 
L 229.70858 210.686804 
L 230.114648 209.270181 
L 230.317682 208.426825 
L 230.926784 208.423755 
L 231.129819 211.314587 
L 231.535887 207.334799 
L 231.738921 209.501097 
L 232.348023 208.847576 
L 232.551057 206.717434 
L 232.957126 210.157643 
L 233.16016 208.277988 
L 233.769262 210.864418 
L 233.972296 210.738882 
L 234.17533 206.863197 
L 234.378364 207.355015 
L 234.581398 207.318876 
L 235.190501 209.003765 
L 235.393535 208.553605 
L 235.596569 206.351803 
L 235.799603 207.067756 
L 236.002637 208.517471 
L 236.611739 207.997486 
L 236.814774 208.899655 
L 237.017808 210.59555 
L 237.220842 208.570134 
L 237.423876 209.06929 
L 238.032978 208.036699 
L 238.236012 211.165139 
L 238.439046 209.221176 
L 238.642081 210.919543 
L 238.845115 208.285348 
L 239.454217 208.988468 
L 239.657251 211.079389 
L 239.860285 207.169436 
L 240.266353 208.09855 
L 240.875456 204.894747 
L 241.07849 207.459739 
L 241.281524 207.291316 
L 241.484558 210.923829 
L 241.687592 209.757712 
L 242.296694 209.888775 
L 242.499729 209.083988 
L 242.702763 206.674569 
L 243.108831 210.835037 
L 243.717933 209.34613 
L 243.920967 210.017396 
L 244.124001 208.347797 
L 244.327036 210.520222 
L 244.53007 211.014493 
L 245.139172 208.753875 
L 245.342206 209.717269 
L 245.748274 210.262989 
L 245.951308 208.263291 
L 246.560411 207.149231 
L 247.169513 209.042963 
L 247.981649 207.669204 
L 248.184684 207.961959 
L 248.387718 209.029488 
L 248.590752 209.18198 
L 248.793786 210.295458 
L 249.402888 210.481016 
L 249.808956 207.429732 
L 250.215025 207.728605 
L 251.027161 208.016479 
L 251.230195 207.819251 
L 251.433229 210.531249 
L 251.636263 207.001017 
L 252.245366 207.245376 
L 252.4484 211.207409 
L 252.651434 211.336011 
L 252.854468 206.765223 
L 253.057502 209.741774 
L 253.666604 210.198069 
L 253.869639 208.214903 
L 254.072673 211.882955 
L 254.275707 210.289934 
L 254.478741 212.244308 
L 255.087843 209.795054 
L 255.290877 207.908688 
L 255.493911 213.103585 
L 255.696945 208.413351 
L 255.89998 208.137126 
L 256.712116 210.636587 
L 256.91515 210.877898 
L 257.118184 207.695549 
L 257.321218 208.157325 
L 257.930321 208.308009 
L 258.336389 203.016946 
L 258.742457 214.942206 
L 259.351559 216.936993 
L 259.554594 207.197603 
L 259.757628 212.350272 
L 259.960662 206.930568 
L 260.163696 207.37401 
L 260.772798 208.977414 
L 260.975832 204.612402 
L 261.178866 208.744695 
L 261.3819 191.974852 
L 261.584935 207.522832 
L 262.194037 196.481341 
L 262.397071 215.776986 
L 262.600105 219.378275 
L 262.803139 201.996579 
L 263.006173 209.242621 
L 263.615276 190.013744 
L 263.81831 212.538894 
L 264.021344 217.162384 
L 264.224378 212.535831 
L 264.427412 215.723707 
L 265.036514 212.296972 
L 265.239549 206.479804 
L 265.442583 203.85173 
L 265.645617 206.364049 
L 265.848651 205.499863 
L 266.457753 215.752486 
L 266.863821 206.405691 
L 267.066855 214.483466 
L 267.878992 213.286106 
L 268.082026 215.356225 
L 268.28506 208.507664 
L 268.488094 209.123196 
L 268.691128 214.85033 
L 269.300231 373.652727 
L 269.503265 42.707273 
L 269.706299 208.66079 
L 269.909333 201.303877 
L 270.721469 219.118587 
L 271.127538 208.587896 
L 271.330572 196.54872 
L 271.533606 214.789089 
L 272.142708 212.206944 
L 272.345742 207.097168 
L 272.548776 205.608268 
L 272.75181 215.623873 
L 272.954845 209.847732 
L 273.563947 207.166378 
L 273.766981 202.231758 
L 273.970015 204.600153 
L 274.173049 210.107426 
L 274.376083 209.188725 
L 274.985186 210.17724 
L 275.18822 207.216595 
L 275.391254 206.618829 
L 275.594288 207.767823 
L 275.797322 210.201737 
L 276.609458 206.967941 
L 276.812493 208.188567 
L 277.015527 204.737963 
L 277.827663 215.449942 
L 278.030697 211.976033 
L 278.233731 206.478583 
L 278.436765 211.628173 
L 279.248902 210.355472 
L 279.451936 209.488828 
L 279.65497 207.770877 
L 279.858004 207.569375 
L 280.061038 210.332807 
L 280.670141 211.484229 
L 280.873175 210.688027 
L 281.076209 211.005302 
L 281.279243 210.694157 
L 281.482277 207.995652 
L 282.294413 209.343056 
L 282.497448 205.199154 
L 282.700482 206.88463 
L 282.903516 205.411669 
L 283.512618 209.224866 
L 283.715652 212.274918 
L 283.918686 209.719737 
L 284.12172 211.477492 
L 284.933857 207.979734 
L 285.136891 212.073424 
L 285.339925 209.166062 
L 285.542959 209.04725 
L 285.745993 209.730759 
L 286.355096 208.82921 
L 286.55813 206.114778 
L 286.761164 208.750198 
L 286.964198 207.071441 
L 287.167232 208.348425 
L 287.776334 209.414114 
L 287.979368 211.818038 
L 288.182403 209.092555 
L 288.385437 208.796758 
L 288.588471 210.70886 
L 289.197573 207.132083 
L 289.400607 209.461872 
L 289.603641 206.751129 
L 289.806675 209.591732 
L 290.00971 205.337562 
L 290.618812 210.025349 
L 290.821846 207.781896 
L 291.02488 208.47154 
L 291.227914 209.665208 
L 291.430948 208.233289 
L 292.040051 209.42637 
L 292.243085 207.990126 
L 292.446119 209.971469 
L 292.649153 208.76795 
L 292.852187 210.526362 
L 293.461289 208.627697 
L 293.664323 211.069604 
L 293.867358 209.159329 
L 294.070392 210.443651 
L 294.273426 207.054302 
L 294.882528 216.99885 
L 295.288596 205.232211 
L 295.49163 202.130706 
L 295.694665 212.149982 
L 296.303767 205.904092 
L 296.506801 205.662781 
L 296.709835 209.109723 
L 296.912869 208.827372 
L 297.115903 210.871761 
L 297.92804 208.677331 
L 298.131074 207.762296 
L 298.537142 209.018455 
L 299.146244 210.439383 
L 299.349278 208.85494 
L 299.552313 208.369243 
L 299.755347 211.470153 
L 299.958381 209.624801 
L 300.770517 206.575968 
L 300.973551 209.977579 
L 301.176585 209.507208 
L 301.37962 211.219038 
L 301.988722 211.318267 
L 302.191756 207.895803 
L 302.39479 207.677168 
L 302.800858 209.962885 
L 303.409961 210.520826 
L 303.612995 210.48777 
L 303.816029 207.122265 
L 304.019063 209.227325 
L 304.222097 208.456218 
L 304.831199 208.71467 
L 305.034233 207.794158 
L 305.237268 208.711616 
L 305.440302 207.657565 
L 305.643336 207.914805 
L 306.252438 207.737186 
L 306.455472 209.967781 
L 306.658506 207.89889 
L 306.86154 209.591722 
L 307.064575 209.411668 
L 307.673677 209.386543 
L 307.876711 210.214599 
L 308.079745 208.536464 
L 308.485813 209.729525 
L 309.094916 207.461586 
L 309.29795 209.208324 
L 309.500984 209.143401 
L 309.704018 210.645778 
L 310.516154 209.114601 
L 310.719188 210.163777 
L 310.922223 206.918322 
L 311.125257 207.904394 
L 311.328291 208.107724 
L 311.937393 208.23023 
L 312.140427 209.752192 
L 312.343461 209.74668 
L 312.546495 209.539662 
L 312.749529 209.54395 
L 313.358632 209.761996 
L 313.7647 210.266047 
L 314.170768 208.859826 
L 314.779871 205.730771 
L 314.982905 208.64853 
L 315.185939 209.288557 
L 315.388973 210.970386 
L 315.592007 208.142023 
L 316.404143 209.861826 
L 316.607178 210.667204 
L 316.810212 210.250739 
L 317.013246 208.973141 
L 317.622348 209.48331 
L 317.825382 208.201447 
L 318.028416 211.245989 
L 318.23145 211.147992 
L 318.434484 208.181837 
L 319.246621 208.777154 
L 319.449655 210.856468 
L 319.652689 208.117537 
L 320.870894 210.011868 
L 321.073928 207.786814 
L 321.886064 208.140804 
L 322.089098 211.198216 
L 322.292133 209.281815 
L 322.495167 209.492503 
L 322.698201 211.609177 
L 323.307303 206.910374 
L 323.510337 209.857533 
L 323.713371 209.69462 
L 323.916405 208.336795 
L 324.119439 209.424517 
L 324.931576 208.223494 
L 325.337644 209.730142 
L 325.540678 210.689262 
L 326.149781 209.341232 
L 326.352815 211.405233 
L 326.555849 208.448263 
L 326.758883 210.792149 
L 326.961917 208.522974 
L 327.571019 208.4103 
L 327.774053 208.744692 
L 327.977088 209.670728 
L 328.180122 207.490974 
L 328.383156 208.094876 
L 328.992258 209.260378 
L 329.398326 206.514101 
L 329.60136 209.411665 
L 329.804394 210.05107 
L 330.616531 216.002991 
L 330.819565 209.926749 
L 331.022599 209.495562 
L 331.225633 213.463106 
L 331.834736 206.665985 
L 332.03777 210.342623 
L 332.443838 207.736587 
L 332.646872 211.798424 
L 333.255974 215.726765 
L 333.662043 206.860143 
L 333.865077 207.770867 
L 334.068111 209.906538 
L 334.677213 209.33265 
L 334.880247 212.303707 
L 335.083281 210.665983 
L 335.286315 211.024302 
L 335.489349 211.673479 
L 336.098452 205.025197 
L 336.301486 209.862439 
L 336.50452 203.875011 
L 336.707554 209.070509 
L 336.910588 206.240945 
L 337.722725 211.764745 
L 338.128793 207.890303 
L 338.940929 209.618677 
L 339.143963 210.71988 
L 339.346997 209.469848 
L 339.550032 210.530629 
L 340.362168 209.830586 
L 340.768236 207.042655 
L 340.97127 210.286886 
L 341.174304 210.044944 
L 341.986441 208.339242 
L 342.189475 208.311067 
L 342.392509 209.871629 
L 342.595543 208.89474 
L 343.204646 208.533398 
L 343.40768 209.065008 
L 343.610714 208.332502 
L 343.813748 208.355157 
L 344.016782 209.212616 
L 344.625884 208.494194 
L 345.031952 212.076482 
L 345.234987 208.87269 
L 345.438021 209.11216 
L 346.047123 210.293632 
L 346.250157 211.639179 
L 346.656225 208.077709 
L 346.859259 210.496332 
L 347.671396 209.572739 
L 347.87443 209.59295 
L 348.077464 207.38809 
L 348.280498 208.492353 
L 348.889601 210.041283 
L 349.092635 211.481802 
L 349.498703 206.5239 
L 349.701737 207.203116 
L 350.310839 208.003004 
L 350.513873 208.663232 
L 350.716907 211.845596 
L 350.919942 207.707785 
L 351.122976 209.159938 
L 351.935112 208.501537 
L 352.34118 209.531739 
L 352.544214 208.173229 
L 353.153317 208.47399 
L 353.356351 209.583159 
L 353.559385 207.666766 
L 353.762419 209.458803 
L 353.965453 203.931954 
L 354.574556 207.465893 
L 354.77759 205.214439 
L 355.386692 211.260058 
L 355.995794 206.748664 
L 356.198828 214.266061 
L 356.401862 212.993343 
L 356.807931 204.730001 
L 357.417033 207.143701 
L 357.620067 210.906698 
L 358.026135 206.820326 
L 358.229169 212.998848 
L 359.041306 205.202819 
L 359.447374 212.336143 
L 359.650408 208.728184 
L 360.25951 208.949859 
L 360.665579 211.653892 
L 360.868613 208.545014 
L 361.071647 208.864741 
L 361.680749 207.777003 
L 362.289852 210.910974 
L 362.492886 210.159488 
L 363.101988 211.722473 
L 363.305022 210.030865 
L 363.508056 206.788478 
L 363.71109 210.411196 
L 363.914124 209.703224 
L 364.523227 206.732723 
L 364.929295 212.396173 
L 365.132329 211.303565 
L 365.335363 207.419333 
L 365.944465 210.841134 
L 366.1475 207.970536 
L 366.350534 210.140502 
L 366.553568 207.152288 
L 366.756602 208.820006 
L 367.365704 206.00394 
L 367.568738 207.635529 
L 367.771772 210.328513 
L 367.974807 206.547789 
L 368.177841 205.665844 
L 368.786943 211.569355 
L 368.989977 210.807467 
L 369.193011 219.023662 
L 369.396045 206.526955 
L 369.599079 207.726169 
L 370.208182 212.236957 
L 370.411216 208.236335 
L 370.61425 193.953728 
L 370.817284 210.928128 
L 371.020318 210.014924 
L 371.832455 208.241869 
L 372.035489 206.947101 
L 372.441557 210.244 
L 373.050659 207.925236 
L 373.253693 210.125778 
L 373.456727 207.276615 
L 373.659762 207.108192 
L 373.862796 210.071277 
L 374.471898 207.22824 
L 374.674932 207.991988 
L 374.877966 207.151651 
L 375.081 211.454225 
L 375.284034 209.102989 
L 375.893137 208.883127 
L 376.096171 207.362348 
L 376.299205 213.592938 
L 376.502239 211.979112 
L 376.705273 207.887866 
L 377.51741 211.709614 
L 377.720444 207.161474 
L 377.923478 209.378589 
L 378.126512 209.157511 
L 378.735614 208.232673 
L 378.938648 208.888616 
L 379.141682 212.067901 
L 379.344717 210.634762 
L 379.547751 211.005895 
L 380.359887 206.990619 
L 380.562921 210.430777 
L 380.765955 208.958444 
L 380.968989 204.917412 
L 381.578092 213.071744 
L 381.781126 206.907913 
L 381.98416 206.70275 
L 382.390228 208.167745 
L 382.99933 203.340318 
L 383.202365 213.187482 
L 383.405399 205.652997 
L 383.608433 210.187654 
L 383.811467 206.035776 
L 384.420569 207.625101 
L 384.623603 208.54564 
L 384.826637 208.5579 
L 385.029672 209.828139 
L 385.232706 209.082143 
L 385.841808 210.018005 
L 386.044842 212.607488 
L 386.247876 207.589577 
L 386.45091 209.091974 
L 386.653944 207.003463 
L 387.263047 212.564621 
L 387.466081 212.810205 
L 387.669115 207.822326 
L 388.075183 203.139442 
L 388.684285 210.089055 
L 388.88732 208.483772 
L 389.090354 208.993346 
L 389.293388 208.744689 
L 389.496422 208.293309 
L 390.105524 210.022898 
L 390.308558 208.353312 
L 390.511592 213.82447 
L 390.917661 207.616554 
L 391.526763 207.624469 
L 391.729797 209.650526 
L 392.135865 210.698448 
L 392.338899 206.896887 
L 392.948002 212.366784 
L 393.35407 207.517928 
L 393.557104 210.166215 
L 394.36924 206.922012 
L 394.572275 209.685436 
L 394.775309 209.649293 
L 394.978343 210.653124 
L 395.181377 205.815279 
L 395.790479 209.948789 
L 395.993513 210.186433 
L 396.196547 209.332046 
L 396.399582 206.512272 
L 396.602616 210.469366 
L 397.211718 209.327141 
L 397.414752 210.174798 
L 397.617786 208.869024 
L 397.82082 210.672714 
L 398.023854 207.934407 
L 398.835991 206.910975 
L 399.039025 207.301746 
L 399.242059 208.79244 
L 399.445093 213.565401 
L 400.054195 208.103446 
L 400.25723 209.090129 
L 400.460264 212.330046 
L 400.663298 213.309971 
L 400.866332 209.839168 
L 401.475434 204.870255 
L 401.881502 212.77223 
L 402.084536 208.974369 
L 402.287571 207.390529 
L 402.896673 211.811921 
L 403.099707 207.18962 
L 403.302741 211.934391 
L 403.505775 209.495598 
L 404.317912 207.495272 
L 404.520946 205.579469 
L 404.72398 204.772855 
L 405.130048 212.753874 
L 405.942185 210.253791 
L 406.145219 211.4965 
L 406.348253 213.688475 
L 406.551287 206.998565 
L 407.160389 209.397567 
L 407.566457 220.584222 
L 407.769491 216.338007 
L 407.972526 218.471805 
L 408.581628 206.284426 
L 408.784662 227.462196 
L 408.987696 179.924029 
L 409.393764 217.434906 
L 410.002867 210.059043 
L 410.205901 203.943601 
L 410.611969 220.975563 
L 410.815003 210.424088 
L 411.424105 206.400768 
L 411.62714 209.351037 
L 411.830174 219.338461 
L 412.236242 209.486385 
L 412.845344 197.618086 
L 413.048378 210.094553 
L 413.454446 215.492801 
L 413.657481 197.583797 
L 414.266583 205.820783 
L 414.469617 206.897503 
L 414.672651 211.137571 
L 414.875685 205.787115 
L 415.078719 212.219176 
L 415.687822 208.041586 
L 415.890856 211.073294 
L 416.09389 220.543782 
L 416.296924 214.3469 
L 417.10906 206.443646 
L 417.312095 213.897972 
L 417.515129 216.434147 
L 417.718163 207.370312 
L 417.921197 213.048486 
L 418.936367 226.959974 
L 419.139401 222.646341 
L 419.342436 193.245712 
L 419.951538 186.101319 
L 420.154572 211.491575 
L 420.357606 210.361615 
L 420.56064 201.537216 
L 420.763674 209.287973 
L 421.372777 214.338313 
L 421.575811 214.801934 
L 421.778845 203.982789 
L 421.981879 215.356843 
L 422.184913 210.150906 
L 422.794015 202.675204 
L 422.997049 202.952603 
L 423.200084 193.063823 
L 423.403118 215.856614 
L 423.606152 204.10464 
L 424.215254 215.948489 
L 424.418288 212.331914 
L 424.621322 212.728742 
L 424.824356 205.801807 
L 425.027391 219.403996 
L 425.839527 219.57854 
L 426.042561 208.72692 
L 426.245595 217.131732 
L 426.448629 211.255828 
L 427.057732 208.519886 
L 427.260766 201.534798 
L 427.4638 206.008212 
L 427.666834 219.367829 
L 427.869868 201.110401 
L 428.47897 192.935756 
L 428.682004 216.349653 
L 428.885039 218.146623 
L 429.088073 208.383343 
L 429.291107 209.747888 
L 430.103243 206.629856 
L 430.306277 228.075851 
L 430.509311 206.188286 
L 430.712346 210.075537 
L 431.321448 193.299614 
L 431.524482 209.409224 
L 431.727516 198.860755 
L 431.93055 200.22045 
L 432.133584 205.868559 
L 432.945721 191.162115 
L 433.148755 195.900733 
L 433.351789 223.228191 
L 433.554823 204.979895 
L 434.163925 216.561569 
L 434.366959 212.839627 
L 434.569994 205.125014 
L 434.773028 205.905324 
L 434.976062 207.889091 
L 435.585164 196.216151 
L 435.991232 211.326832 
L 436.194266 215.744538 
L 436.397301 214.604747 
L 437.006403 219.182883 
L 437.209437 214.879105 
L 437.615505 213.354712 
L 437.818539 201.678693 
L 438.427642 173.593015 
L 438.630676 209.888153 
L 438.83371 209.640705 
L 439.036744 202.029043 
L 439.239778 207.72679 
L 439.84888 204.728763 
L 440.051914 222.815428 
L 440.254949 217.382864 
L 440.457983 204.924155 
L 440.661017 215.194536 
L 441.270119 205.840363 
L 441.473153 215.198851 
L 442.691358 203.111252 
L 442.894392 204.693884 
L 443.097426 201.520051 
L 443.30046 214.528805 
L 443.503494 213.257311 
L 444.112597 195.012039 
L 444.315631 205.79938 
L 444.518665 203.49342 
L 444.721699 192.51871 
L 444.924733 215.679607 
L 445.736869 204.741046 
L 445.939904 215.414995 
L 446.142938 205.466816 
L 446.345972 208.203876 
L 446.955074 208.059344 
L 447.158108 210.884043 
L 447.361142 202.277663 
L 447.564176 203.731089 
L 447.767211 206.494493 
L 448.376313 217.222393 
L 448.579347 214.196242 
L 448.782381 215.337847 
L 448.985415 213.192411 
L 449.188449 204.732426 
L 449.797552 210.730929 
L 450.000586 218.505492 
L 450.20362 213.259755 
L 450.406654 204.33925 
L 450.609688 209.414125 
L 451.21879 199.823578 
L 451.421824 221.923658 
L 451.624859 210.479153 
L 451.827893 215.666167 
L 452.030927 207.366031 
L 452.640029 199.62084 
L 452.843063 215.568736 
L 453.046097 215.754338 
L 453.249131 216.620321 
L 453.452166 208.630164 
L 454.061268 210.76154 
L 454.264302 209.550695 
L 454.67037 201.023982 
L 454.873404 216.344127 
L 455.482507 220.093027 
L 455.685541 224.726288 
L 455.888575 206.242164 
L 456.091609 224.245515 
L 456.294643 212.908209 
L 456.903745 189.62728 
L 457.106779 160.440372 
L 457.309814 215.269884 
L 457.512848 222.418536 
L 457.715882 201.074199 
L 458.324984 198.815442 
L 458.528018 216.009092 
L 458.731052 205.671983 
L 459.137121 204.524839 
L 459.746223 211.065911 
L 459.949257 208.934558 
L 460.355325 212.76061 
L 460.558359 210.62494 
L 461.167462 210.619427 
L 461.370496 213.057059 
L 461.979598 196.436048 
L 462.994769 212.126078 
L 463.197803 196.121841 
L 463.400837 203.531406 
L 464.009939 204.418262 
L 464.212973 209.107273 
L 464.416007 203.948478 
L 464.619041 212.573822 
L 464.822076 207.298054 
L 465.634212 214.397726 
L 465.837246 218.327884 
L 466.04028 206.253805 
L 466.243314 204.647301 
L 466.852417 207.323159 
L 467.055451 210.392864 
L 467.258485 208.589714 
L 467.461519 210.544127 
L 467.664553 220.036043 
L 468.476689 210.882788 
L 468.679724 212.051999 
L 468.882758 208.647289 
L 469.085792 213.069307 
L 469.897928 198.990613 
L 470.100962 207.907469 
L 470.303996 207.194545 
L 470.50703 208.186733 
L 471.116133 211.900104 
L 471.319167 214.799463 
L 471.522201 214.710696 
L 471.725235 209.586239 
L 471.928269 211.052428 
L 472.740406 208.906384 
L 472.94344 209.84773 
L 473.146474 217.56417 
L 473.349508 214.104972 
L 473.95861 216.07953 
L 474.161644 204.202683 
L 474.364679 201.413496 
L 474.567713 209.520674 
L 474.770747 205.483334 
L 475.379849 200.168984 
L 475.582883 212.960884 
L 475.785917 198.971623 
L 475.988951 208.203906 
L 476.191985 200.203899 
L 477.004122 212.731837 
L 477.207156 205.007439 
L 477.41019 205.64563 
L 477.613224 210.886467 
L 478.222327 211.867034 
L 478.425361 210.171129 
L 478.831429 202.565539 
L 479.034463 209.053385 
L 479.846599 213.648656 
L 480.049634 205.815907 
L 480.252668 207.937459 
L 480.455702 208.187358 
L 481.064804 212.83654 
L 481.267838 210.552674 
L 481.470872 229.971426 
L 481.673906 209.463108 
L 481.87694 210.693567 
L 482.486043 209.469843 
L 482.689077 205.826911 
L 482.892111 208.463564 
L 483.095145 201.605216 
L 483.298179 214.050479 
L 483.907282 209.645588 
L 484.110316 214.356091 
L 484.31335 205.912665 
L 484.516384 214.012494 
L 484.719418 215.309667 
L 485.32852 209.60398 
L 485.531554 204.247979 
L 485.734589 211.037752 
L 486.140657 210.143542 
L 486.749759 209.600321 
L 486.952793 210.205409 
L 487.155827 201.193019 
L 487.358861 202.705189 
L 487.561895 210.668451 
L 488.170998 198.79584 
L 488.374032 206.580234 
L 488.577066 219.221492 
L 488.7801 205.16056 
L 489.592237 212.41457 
L 489.795271 207.907457 
L 489.998305 205.883247 
L 490.201339 207.59572 
L 490.404373 206.858934 
L 491.013475 207.859047 
L 491.216509 206.334659 
L 491.419543 203.400933 
L 491.622578 207.008378 
L 491.825612 208.298805 
L 492.434714 210.723555 
L 492.637748 207.087382 
L 492.840782 210.81481 
L 493.043816 205.403697 
L 493.24685 207.781925 
L 493.855953 210.259287 
L 494.058987 207.464644 
L 494.262021 206.232382 
L 494.465055 209.764452 
L 494.668089 208.339845 
L 495.277192 213.2518 
L 495.480226 209.462487 
L 495.68326 213.986775 
L 495.886294 209.145227 
L 496.089328 207.339106 
L 496.69843 212.457422 
L 496.901464 209.811607 
L 497.104498 213.251196 
L 497.510567 208.927817 
L 498.119669 214.11661 
L 498.322703 207.163292 
L 498.525737 211.950959 
L 498.728771 209.744214 
L 498.931805 210.023506 
L 499.743942 205.860012 
L 499.946976 209.241398 
L 500.15001 194.642104 
L 500.353044 211.359308 
L 500.962147 210.701501 
L 501.368215 214.673937 
L 501.571249 209.880802 
L 501.774283 209.564785 
L 502.383385 206.673322 
L 502.586419 212.159184 
L 502.789453 210.659878 
L 502.992488 214.53979 
L 503.195522 211.894599 
L 504.007658 203.589587 
L 504.210692 207.909903 
L 504.413726 207.713312 
L 504.61676 204.788775 
L 505.225863 211.498324 
L 505.428897 210.674573 
L 505.631931 211.10145 
L 505.834965 209.730763 
L 506.037999 209.448408 
L 506.647102 193.891233 
L 507.05317 212.683444 
L 507.256204 210.601675 
L 507.459238 210.051676 
L 508.06834 209.763857 
L 508.271374 209.267708 
L 508.474408 210.70459 
L 508.677443 207.008358 
L 508.880477 210.014924 
L 509.489579 210.45714 
L 509.692613 211.027352 
L 509.895647 214.322382 
L 510.098681 211.099627 
L 510.301715 213.142152 
L 510.910818 212.990912 
L 511.113852 203.036543 
L 511.316886 219.065908 
L 511.51992 211.915405 
L 512.332056 204.392514 
L 512.535091 206.950178 
L 512.941159 204.808364 
L 513.144193 206.185835 
L 513.956329 212.535837 
L 514.159363 216.856764 
L 514.362398 209.545799 
L 514.565432 211.707161 
L 515.174534 204.667519 
L 515.377568 206.086626 
L 515.580602 215.339688 
L 515.783636 205.181387 
L 515.98667 209.362036 
L 516.595773 204.461121 
L 516.798807 212.558501 
L 517.204875 210.682502 
L 517.407909 221.396948 
L 518.017011 196.845178 
L 518.220046 205.598442 
L 518.42308 204.34846 
L 518.626114 201.236518 
L 518.829148 186.527588 
L 519.641284 209.589274 
L 519.844318 207.034681 
L 520.047353 213.785873 
L 520.250387 213.435556 
L 520.859489 217.994095 
L 521.062523 203.630649 
L 521.265557 215.513624 
L 521.671625 200.001195 
L 522.280728 201.915712 
L 522.483762 210.156418 
L 522.686796 206.504313 
L 522.88983 212.858604 
L 523.092864 200.185521 
L 523.701966 206.692328 
L 523.905001 206.790323 
L 524.108035 205.984915 
L 524.514103 208.146296 
L 525.123205 206.710101 
L 525.326239 202.157032 
L 525.529273 202.870565 
L 525.732308 207.726781 
L 525.935342 209.222405 
L 526.544444 204.804737 
L 526.747478 214.331563 
L 527.153546 208.940044 
L 527.35658 210.155203 
L 527.965683 210.176622 
L 528.168717 211.206787 
L 528.371751 208.27127 
L 528.574785 207.974217 
L 528.777819 211.257625 
L 529.386921 212.538293 
L 529.589956 207.009584 
L 529.79299 204.794905 
L 529.996024 213.882644 
L 530.199058 207.085525 
L 530.80816 207.331756 
L 531.011194 214.282586 
L 531.214228 206.3634 
L 531.417263 210.787282 
L 531.620297 206.794591 
L 532.229399 212.311063 
L 532.432433 208.871469 
L 532.635467 208.103449 
L 532.838501 209.265291 
L 533.041535 208.152445 
L 533.650638 213.806668 
L 533.853672 207.824172 
L 534.056706 213.495567 
L 534.25974 206.841152 
L 534.462774 207.992594 
L 535.071876 210.664768 
L 535.274911 212.422528 
L 535.477945 209.438607 
L 535.884013 205.758939 
L 536.493115 212.487432 
L 536.696149 211.553449 
L 537.305252 200.835956 
L 537.914354 213.242011 
L 538.117388 208.399876 
L 538.320422 208.394368 
L 538.523456 205.520076 
L 538.72649 208.784477 
L 539.335593 209.379228 
L 539.538627 207.561397 
L 539.741661 212.028711 
L 539.944695 212.483772 
L 540.147729 212.326391 
L 540.756831 209.972664 
L 540.959866 211.541802 
L 541.1629 206.288725 
L 541.365934 205.932264 
L 541.568968 206.090903 
L 542.381104 205.630307 
L 542.584138 211.304779 
L 542.787173 207.32441 
L 542.990207 210.763976 
L 543.802343 211.100213 
L 544.005377 210.726005 
L 544.208411 205.801801 
L 544.411445 204.548112 
L 545.223582 211.892744 
L 545.426616 208.756314 
L 545.62965 214.219507 
L 545.832684 207.342147 
L 546.644821 209.663378 
L 546.847855 209.409224 
L 547.050889 210.226223 
L 547.253923 207.96809 
L 547.863025 211.367855 
L 548.269093 206.378165 
L 548.472128 211.667957 
L 548.675162 211.655729 
L 549.284264 206.776231 
L 549.690332 208.497875 
L 549.893366 212.158546 
L 550.0964 207.434042 
L 550.705503 215.579152 
L 550.908537 208.880664 
L 551.111571 214.384244 
L 551.517639 210.075583 
L 552.126741 209.268348 
L 552.329776 207.45727 
L 552.53281 202.467582 
L 552.735844 205.488223 
L 552.938878 206.274008 
L 553.751014 203.890315 
L 554.157082 213.080338 
L 554.360117 207.889685 
L 554.969219 211.31151 
L 555.172253 207.702275 
L 555.375287 199.998722 
L 555.781355 231.269223 
L 556.390458 207.903804 
L 556.593492 204.567669 
L 556.796526 210.285057 
L 556.99956 211.077553 
L 557.202594 207.185959 
L 557.811696 214.324224 
L 558.014731 209.16731 
L 558.217765 211.807609 
L 558.420799 208.925979 
L 558.623833 211.996249 
L 559.232935 209.650516 
L 559.435969 205.986181 
L 559.639003 209.249969 
L 559.842037 209.233431 
L 560.045072 210.817884 
L 560.654174 206.817277 
L 560.857208 203.518518 
L 561.263276 210.748069 
L 562.075413 203.499551 
L 562.278447 212.460485 
L 562.481481 209.23467 
L 562.684515 208.72633 
L 562.887549 208.940654 
L 563.496651 205.182618 
L 563.699686 211.100216 
L 563.90272 209.581945 
L 564.308788 210.635956 
L 564.91789 206.853401 
L 565.120924 212.363119 
L 565.323958 205.908375 
L 565.526992 205.883882 
L 565.730027 207.811916 
L 566.339129 208.613628 
L 566.542163 211.707173 
L 566.948231 208.785108 
L 567.151265 208.638742 
L 567.760368 210.689872 
L 568.166436 203.939309 
L 568.36947 210.455303 
L 568.572504 208.077096 
L 569.181606 211.518542 
L 569.384641 205.686679 
L 569.587675 206.629239 
L 569.790709 209.136659 
L 569.993743 206.64211 
L 570.602845 207.437068 
L 570.805879 207.325638 
L 571.008913 210.496327 
L 571.211947 211.60305 
L 571.414982 211.447489 
L 572.024084 206.93118 
L 572.227118 207.068384 
L 572.633186 210.465092 
L 572.83622 207.784975 
L 573.648357 206.910366 
L 574.054425 205.058264 
L 574.257459 213.445378 
L 574.866561 206.883389 
L 575.069595 212.762457 
L 575.27263 207.533856 
L 575.475664 210.695986 
L 575.678698 207.572457 
L 576.2878 207.401565 
L 576.490834 208.66321 
L 576.693868 206.797053 
L 576.896902 212.464184 
L 577.099937 207.495892 
L 577.709039 207.850477 
L 577.912073 209.999038 
L 578.318141 208.872063 
L 578.521175 213.14278 
L 579.130278 207.37891 
L 579.333312 211.251488 
L 579.536346 212.595864 
L 579.73938 206.988158 
L 579.942414 206.923219 
L 580.551516 211.818658 
L 580.75455 211.010186 
L 580.957585 208.354553 
L 581.363653 206.260518 
L 581.972755 208.766743 
L 582.175789 208.579333 
L 582.378823 204.647943 
L 582.581857 208.675469 
L 582.784892 209.714226 
L 583.393994 208.099762 
L 583.597028 209.433708 
L 583.800062 205.762628 
L 584.003096 210.119666 
L 584.20613 208.717755 
L 584.815233 212.518656 
L 585.018267 211.765361 
L 585.221301 212.141419 
L 585.424335 209.115239 
L 585.627369 209.654783 
L 586.236471 207.383812 
L 586.439505 208.2933 
L 586.64254 210.814818 
L 586.845574 206.348748 
L 587.048608 206.923234 
L 587.65771 211.336614 
L 587.860744 207.490994 
L 588.063778 208.05566 
L 588.266812 209.788931 
L 588.469847 205.512137 
L 589.078949 206.55513 
L 589.281983 207.688808 
L 589.485017 207.740847 
L 589.688051 209.008045 
L 589.891085 207.457916 
L 590.500188 209.249959 
L 590.703222 209.396366 
L 590.906256 210.525731 
L 591.312324 208.570138 
L 591.921426 202.735227 
L 592.12446 209.350415 
L 592.327495 206.934238 
L 592.733563 211.78863 
L 593.545699 196.856822 
L 593.748733 209.090114 
L 593.951767 206.596768 
L 594.154802 208.707959 
L 594.763904 208.995185 
L 594.966938 210.294833 
L 595.169972 208.041589 
L 595.373006 207.675318 
L 595.57604 208.81696 
L 596.185143 208.426227 
L 596.591211 211.116763 
L 596.794245 211.134533 
L 596.997279 206.659878 
L 597.809415 210.302196 
L 598.01245 211.342742 
L 598.215484 210.884649 
L 598.418518 206.622492 
L 599.02762 209.814063 
L 599.230654 206.161922 
L 599.433688 210.208496 
L 599.636722 211.963179 
L 599.839757 208.036067 
L 600.448859 209.142789 
L 600.651893 208.381498 
L 600.854927 209.036239 
L 601.057961 211.467067 
L 601.260995 209.689725 
L 601.870098 207.664295 
L 602.073132 209.206494 
L 602.276166 209.289173 
L 602.4792 209.590504 
L 602.682234 207.82723 
L 603.291336 207.360524 
L 603.49437 211.52896 
L 603.900439 208.815719 
L 604.103473 210.063341 
L 604.712575 208.209395 
L 604.915609 208.529096 
L 605.118643 210.829511 
L 605.321677 209.087671 
L 605.524712 205.795086 
L 606.336848 210.488983 
L 606.539882 207.705321 
L 606.742916 209.253671 
L 606.94595 209.54457 
L 607.555053 209.678068 
L 607.758087 209.988601 
L 607.961121 208.525442 
L 608.164155 209.33817 
L 608.367189 209.633386 
L 608.976291 211.855976 
L 609.179325 209.520686 
L 609.38236 210.732736 
L 609.788428 205.743611 
L 610.39753 209.165446 
L 610.600564 209.035015 
L 610.803598 206.039427 
L 611.209667 208.24554 
L 611.818769 205.807324 
L 612.021803 208.997623 
L 612.224837 209.174645 
L 612.427871 208.709163 
L 612.630905 209.164867 
L 613.240008 211.610992 
L 613.443042 208.848215 
L 613.646076 207.917242 
L 613.84911 210.670282 
L 614.052144 207.724935 
L 614.661246 208.322704 
L 614.86428 206.696608 
L 615.067315 208.57811 
L 615.270349 208.636878 
L 615.473383 211.774558 
L 616.285519 207.968692 
L 616.691587 208.693848 
L 616.894622 208.797378 
L 617.503724 211.744533 
L 617.706758 209.871604 
L 618.112826 210.477364 
L 618.31586 206.388543 
L 618.924963 209.023374 
L 619.127997 206.641475 
L 619.331031 209.814667 
L 619.534065 209.935332 
L 619.737099 210.217029 
L 620.346201 205.684229 
L 620.549235 213.109706 
L 620.75227 209.700752 
L 621.158338 210.711332 
L 621.970474 210.046779 
L 622.173508 204.979263 
L 622.376542 211.677146 
L 622.579576 209.412288 
L 623.188679 209.411669 
L 623.391713 208.872083 
L 623.594747 211.28151 
L 623.797781 209.768107 
L 624.000815 209.967176 
L 624.609918 213.157481 
L 624.812952 207.419335 
L 625.015986 208.05934 
L 625.21902 212.977425 
L 625.422054 211.851706 
L 626.031156 205.792615 
L 626.23419 212.406001 
L 626.437225 207.381953 
L 626.640259 210.954447 
L 627.655429 204.459275 
L 627.858463 208.48133 
L 628.061497 210.072512 
L 628.264531 207.511193 
L 628.873634 206.926906 
L 629.076668 208.76429 
L 629.279702 206.441205 
L 629.482736 210.04619 
L 629.68577 206.835622 
L 630.294873 227.896403 
L 630.497907 211.076344 
L 630.903975 205.09012 
L 631.107009 207.268042 
L 631.919145 210.164382 
L 632.12218 208.937002 
L 632.325214 209.153809 
L 632.528248 208.638741 
L 633.13735 212.198365 
L 633.340384 209.627865 
L 633.543418 209.951845 
L 633.746452 208.477044 
L 633.949486 209.147704 
L 634.558589 207.781897 
L 634.761623 210.79338 
L 634.964657 209.237724 
L 635.167691 209.209562 
L 635.370725 208.733038 
L 635.979828 208.976181 
L 636.385896 211.342764 
L 636.58893 203.618372 
L 636.791964 210.228681 
L 637.6041 209.45758 
L 637.807135 207.015717 
L 638.010169 206.531869 
L 638.213203 208.714059 
L 638.822305 212.062421 
L 639.025339 209.272607 
L 639.228373 208.766141 
L 639.431407 208.60626 
L 640.243544 209.208332 
L 640.446578 209.918191 
L 640.649612 213.012307 
L 640.852646 210.038824 
L 641.05568 210.481032 
L 641.664783 211.240465 
L 641.867817 208.704271 
L 642.070851 209.288561 
L 642.273885 205.874696 
L 642.476919 208.632609 
L 643.086021 212.040955 
L 643.289055 208.085698 
L 643.492089 207.637972 
L 643.695124 211.064085 
L 643.898158 208.74653 
L 644.50726 210.228064 
L 644.710294 209.176472 
L 644.913328 212.469085 
L 645.319396 205.923073 
L 645.928499 207.618997 
L 646.334567 212.313515 
L 646.537601 207.653892 
L 646.740635 205.600304 
L 647.552772 206.680086 
L 647.755806 208.023199 
L 647.95884 207.532022 
L 648.161874 206.371383 
L 648.770976 206.123363 
L 648.97401 210.946488 
L 649.177044 205.637671 
L 649.380079 210.973454 
L 649.583113 207.848647 
L 650.192215 209.349805 
L 650.395249 209.167891 
L 650.598283 208.821872 
L 650.801317 206.617601 
L 651.613454 213.570288 
L 651.816488 208.892297 
L 652.019522 212.483157 
L 652.42559 211.837012 
L 653.034693 211.497095 
L 653.237727 207.014485 
L 653.440761 207.558985 
L 653.643795 212.21612 
L 653.846829 205.127478 
L 654.455931 211.094698 
L 654.658965 208.948059 
L 655.065034 208.254705 
L 655.268068 212.124875 
L 655.87717 208.191021 
L 656.080204 211.495253 
L 656.283238 207.761102 
L 656.486272 210.438757 
L 656.689306 208.990911 
L 657.298409 209.221778 
L 657.501443 211.470778 
L 657.704477 206.688043 
L 657.907511 210.887065 
L 658.110545 207.699234 
L 658.719648 210.036385 
L 658.922682 207.040204 
L 659.125716 213.52494 
L 659.32875 203.639201 
L 659.531784 210.801324 
L 660.140886 208.445225 
L 660.34392 210.114767 
L 660.546954 209.027641 
L 660.953023 202.364664 
L 661.562125 211.579181 
L 661.765159 208.695075 
L 661.968193 211.96809 
L 662.171227 209.546405 
L 662.374261 210.315047 
L 662.983364 208.483782 
L 663.389432 210.235415 
L 663.592466 208.001166 
L 663.7955 209.039895 
L 664.404602 210.045571 
L 664.607637 211.949707 
L 664.810671 210.999767 
L 665.013705 212.735492 
L 665.216739 207.781294 
L 665.825841 206.365266 
L 666.028875 208.686508 
L 666.231909 209.200984 
L 666.434944 212.589736 
L 666.637978 208.014619 
L 667.450114 196.404809 
L 667.653148 210.782964 
L 668.059216 208.2143 
L 668.668319 208.434787 
L 668.871353 211.158396 
L 669.074387 207.777613 
L 669.480455 208.932102 
L 670.089557 211.336642 
L 670.292592 210.398957 
L 670.495626 207.71574 
L 670.69866 208.393746 
L 670.901694 206.515327 
L 671.71383 210.006367 
L 671.916864 208.001776 
L 672.119899 209.762584 
L 672.322933 209.913898 
L 672.932035 209.249362 
L 673.135069 209.412279 
L 673.338103 202.076806 
L 673.541137 207.526498 
L 674.353274 210.428356 
L 674.556308 209.159334 
L 674.759342 208.982938 
L 674.962376 209.448402 
L 675.16541 208.447035 
L 675.774512 211.183513 
L 675.977547 207.923994 
L 676.180581 209.878362 
L 676.383615 208.662626 
L 676.586649 212.162229 
L 677.398785 208.290248 
L 677.601819 212.241237 
L 678.007888 209.573965 
L 678.61699 210.841144 
L 678.820024 210.909135 
L 679.023058 213.780364 
L 679.226092 212.843298 
L 679.429126 205.668287 
L 680.038229 201.114624 
L 680.241263 212.801639 
L 680.444297 210.305247 
L 680.647331 217.116445 
L 680.850365 205.29224 
L 681.459467 211.732281 
L 681.662502 212.561568 
L 681.865536 207.963178 
L 682.06857 208.073438 
L 682.271604 212.051377 
L 682.880706 208.431107 
L 683.08374 213.895502 
L 683.286774 204.456848 
L 683.489809 204.395587 
L 683.692843 206.051066 
L 684.301945 205.628493 
L 684.504979 206.146625 
L 684.708013 208.41151 
L 685.114081 210.261149 
L 685.723184 204.668743 
L 685.926218 206.643953 
L 686.129252 207.316433 
L 686.332286 206.952627 
L 686.53532 210.924434 
L 687.144422 206.855852 
L 687.347457 208.617305 
L 687.956559 207.546716 
L 688.565661 208.496644 
L 688.768695 207.151665 
L 688.971729 209.035011 
L 689.377798 207.655741 
L 689.9869 209.374915 
L 690.189934 209.387763 
L 690.392968 208.053233 
L 690.799036 207.51548 
L 691.408139 207.369089 
L 691.611173 210.923225 
L 691.814207 208.045266 
L 692.829377 209.036235 
L 693.032412 208.45866 
L 693.235446 210.882181 
L 693.43848 211.955846 
L 693.641514 207.282123 
L 694.45365 210.394048 
L 694.656684 208.576871 
L 694.859719 210.556983 
L 695.062753 209.652359 
L 696.077923 215.009574 
L 696.280957 206.722336 
L 696.483991 209.348577 
L 697.093094 213.72034 
L 697.296128 210.871781 
L 697.499162 209.707484 
L 697.702196 201.189353 
L 697.90523 216.364331 
L 698.514332 196.209426 
L 698.717367 211.874373 
L 698.920401 211.504441 
L 699.123435 208.104661 
L 699.326469 211.38809 
L 699.935571 209.485149 
L 700.138605 207.23559 
L 700.341639 210.462648 
L 700.544674 207.07634 
L 700.747708 208.262694 
L 701.559844 211.163902 
L 701.762878 210.371393 
L 701.965912 212.669966 
L 702.168946 207.127797 
L 702.778049 212.553602 
L 702.981083 209.97084 
L 703.184117 210.846664 
L 703.387151 210.555124 
L 703.590185 209.912666 
L 704.199287 231.086082 
L 704.402322 218.569843 
L 704.605356 218.248868 
L 704.80839 216.712843 
L 705.011424 185.593587 
L 705.620526 200.954794 
L 705.82356 219.004063 
L 706.026594 224.337372 
L 706.229628 207.626325 
L 706.432663 211.46586 
L 707.041765 213.875293 
L 707.244799 218.942197 
L 707.447833 214.372619 
L 707.650867 218.227443 
L 707.853901 227.429089 
L 708.463004 189.871672 
L 708.666038 221.031913 
L 708.869072 191.429735 
L 709.072106 217.854444 
L 709.27514 213.042976 
L 709.884242 202.189507 
L 710.087277 201.660959 
L 710.290311 189.388998 
L 710.493345 203.973642 
L 711.305481 206.70761 
L 711.508515 213.518864 
L 711.711549 211.471954 
L 711.914583 203.513663 
L 712.117618 208.641203 
L 712.72672 211.211669 
L 712.929754 217.373692 
L 713.132788 217.083982 
L 713.335822 210.149681 
L 713.538856 209.941447 
L 714.147959 207.158409 
L 714.554027 228.16342 
L 714.757061 211.282744 
L 714.960095 209.203411 
L 715.569197 209.186883 
L 715.772232 203.940548 
L 715.975266 213.00622 
L 716.1783 214.60596 
L 716.381334 195.278454 
L 716.990436 213.020309 
L 717.396504 206.742537 
L 717.802573 216.772843 
L 718.411675 210.174181 
L 718.614709 213.004364 
L 718.817743 197.584405 
L 719.223811 210.612087 
L 719.832914 206.781117 
L 720.035948 208.294538 
L 720.238982 211.026112 
L 720.442016 200.695718 
L 720.64505 217.056428 
L 721.457187 189.902268 
L 721.660221 212.533374 
L 721.863255 213.692778 
L 722.066289 205.251818 
L 722.675391 195.118622 
L 722.878425 211.794747 
L 723.284493 202.694785 
L 723.487528 213.64501 
L 724.09663 209.368167 
L 724.502698 214.087196 
L 724.908766 208.623439 
L 725.517869 206.979572 
L 725.720903 213.586818 
L 725.923937 210.316884 
L 726.126971 214.052294 
L 726.939107 212.349032 
L 727.142142 214.207863 
L 727.345176 212.137116 
L 727.54821 221.909566 
L 727.751244 207.401551 
L 728.360346 218.624956 
L 728.766414 201.685433 
L 728.969448 204.782053 
L 729.781585 221.826276 
L 729.984619 199.159672 
L 730.187653 227.682655 
L 730.390687 204.221032 
L 730.593721 205.670117 
L 731.405858 218.773146 
L 731.608892 211.726771 
L 731.811926 213.175871 
L 732.01496 208.914947 
L 732.624062 208.790606 
L 732.827096 205.671963 
L 733.030131 204.868427 
L 733.233165 207.898887 
L 733.436199 202.341409 
L 734.045301 220.718935 
L 734.248335 221.602727 
L 734.654403 195.118631 
L 734.857438 196.555457 
L 735.46654 189.971486 
L 735.669574 208.644245 
L 735.872608 210.678831 
L 736.075642 214.929948 
L 736.278676 211.203744 
L 736.887779 222.137412 
L 737.090813 208.556062 
L 737.293847 212.50154 
L 737.496881 210.734562 
L 737.699915 211.715121 
L 738.309017 216.595876 
L 738.715086 202.414887 
L 738.91812 204.786348 
L 739.121154 219.309675 
L 739.730256 198.972244 
L 739.93329 214.597368 
L 740.136324 215.896428 
L 740.339358 211.358683 
L 740.542393 221.847101 
L 741.151495 203.220876 
L 741.354529 177.30024 
L 741.557563 204.148782 
L 741.760597 207.021827 
L 741.963631 213.035009 
L 742.775768 208.728158 
L 742.978802 206.19866 
L 743.181836 216.004815 
L 743.38487 204.899048 
L 743.993972 205.881452 
L 744.197006 221.026998 
L 744.400041 220.486823 
L 744.603075 206.861365 
L 744.806109 213.307537 
L 745.415211 210.720509 
L 745.618245 216.450093 
L 745.821279 217.910782 
L 746.024313 197.641979 
L 746.227348 199.144328 
L 746.83645 206.710714 
L 747.039484 219.914181 
L 747.242518 222.071266 
L 747.445552 185.020335 
L 747.648586 200.656514 
L 748.460723 212.363721 
L 748.663757 211.535096 
L 748.663757 211.535096 
" clip-path="url(#pad84fd6da5)" style="fill: none; stroke: #1f77b4; stroke-width: 1.5; stroke-linecap: square"/>
   </g>
   <g id="line2d_19">
    <path d="M 66.682344 209.041735 
L 781.139062 209.041735 
" clip-path="url(#pad84fd6da5)" style="fill: none; stroke: #1f77b4; stroke-linecap: square"/>
   </g>
   <g id="patch_3">
    <path d="M 66.682344 390.2 
L 66.682344 26.16 
" style="fill: none; stroke: #000000; stroke-width: 0.8; stroke-linejoin: miter; stroke-linecap: square"/>
   </g>
   <g id="patch_4">
    <path d="M 781.139062 390.2 
L 781.139062 26.16 
" style="fill: none; stroke: #000000; stroke-width: 0.8; stroke-linejoin: miter; stroke-linecap: square"/>
   </g>
   <g id="patch_5">
    <path d="M 66.682344 390.2 
L 781.139062 390.2 
" style="fill: none; stroke: #000000; stroke-width: 0.8; stroke-linejoin: miter; stroke-linecap: square"/>
   </g>
   <g id="patch_6">
    <path d="M 66.682344 26.16 
L 781.139062 26.16 
" style="fill: none; stroke: #000000; stroke-width: 0.8; stroke-linejoin: miter; stroke-linecap: square"/>
   </g>
   <g id="text_20">
    <!-- Daily Portfolio P&amp;L -->
    <g transform="translate(368.592578 20.16) scale(0.12 -0.12)">
     <defs>
      <path id="DejaVuSans-4c" d="M 603 3500 
L 1178 3500 
L 1178 0 
L 603 0 
L 603 3500 
z
M 603 4863 
L 1178 4863 
L 1178 4134 
L 603 4134 
L 603 4863 
z
" transform="scale(0.015625)"/>
      <path id="DejaVuSans-4f" d="M 603 4863 
L 1178 4863 
L 1178 0 
L 603 0 
L 603 4863 
z
" transform="scale(0.015625)"/>
      <path id="DejaVuSans-5c" d="M 2059 -325 
Q 1816 -950 1584 -1140 
Q 1353 -1331 966 -1331 
L 506 -1331 
L 506 -850 
L 844 -850 
Q 1081 -850 1212 -737 
Q 1344 -625 1503 -206 
L 1606 56 
L 191 3500 
L 800 3500 
L 1894 763 
L 2988 3500 
L 3597 3500 
L 2059 -325 
z
" transform="scale(0.015625)"/>
      <path id="DejaVuSans-52" d="M 1959 3097 
Q 1497 3097 1228 2736 
Q 959 2375 959 1747 
Q 959 1119 1226 758 
Q 1494 397 1959 397 
Q 2419 397 2687 759 
Q 2956 1122 2956 1747 
Q 2956 2369 2687 2733 
Q 2419 3097 1959 3097 
z
M 1959 3584 
Q 2709 3584 3137 3096 
Q 3566 2609 3566 1747 
Q 3566 888 3137 398 
Q 2709 -91 1959 -91 
Q 1206 -91 779 398 
Q 353 888 353 1747 
Q 353 2609 779 3096 
Q 1206 3584 1959 3584 
z
" transform="scale(0.015625)"/>
      <path id="DejaVuSans-55" d="M 2631 2963 
Q 2534 3019 2420 3045 
Q 2306 3072 2169 3072 
Q 1681 3072 1420 2755 
Q 1159 2438 1159 1844 
L 1159 0 
L 581 0 
L 581 3500 
L 1159 3500 
L 1159 2956 
Q 1341 3275 1631 3429 
Q 1922 3584 2338 3584 
Q 2397 3584 2469 3576 
Q 2541 3569 2628 3553 
L 2631 2963 
z
" transform="scale(0.015625)"/>
      <path id="DejaVuSans-49" d="M 2375 4863 
L 2375 4384 
L 1825 4384 
Q 1516 4384 1395 4259 
Q 1275 4134 1275 3809 
L 1275 3500 
L 2222 3500 
L 2222 3053 
L 1275 3053 
L 1275 0 
L 697 0 
L 697 3053 
L 147 3053 
L 147 3500 
L 697 3500 
L 697 3744 
Q 697 4328 969 4595 
Q 1241 4863 1831 4863 
L 2375 4863 
z
" transform="scale(0.015625)"/>
     </defs>
     <use xlink:href="#DejaVuSans-27"/>
     <use xlink:href="#DejaVuSans-44" transform="translate(77 0)"/>
     <use xlink:href="#DejaVuSans-4c" transform="translate(138.28125 0)"/>
     <use xlink:href="#DejaVuSans-4f" transform="translate(166.0625 0)"/>
     <use xlink:href="#DejaVuSans-5c" transform="translate(193.84375 0)"/>
     <use xlink:href="#DejaVuSans-3" transform="translate(253.03125 0)"/>
     <use xlink:href="#DejaVuSans-33" transform="translate(284.8125 0)"/>
     <use xlink:href="#DejaVuSans-52" transform="translate(341.546875 0)"/>
     <use xlink:href="#DejaVuSans-55" transform="translate(402.734375 0)"/>
     <use xlink:href="#DejaVuSans-57" transform="translate(443.84375 0)"/>
     <use xlink:href="#DejaVuSans-49" transform="translate(483.046875 0)"/>
     <use xlink:href="#DejaVuSans-52" transform="translate(518.25 0)"/>
     <use xlink:href="#DejaVuSans-4f" transform="translate(579.4375 0)"/>
     <use xlink:href="#DejaVuSans-4c" transform="translate(607.21875 0)"/>
     <use xlink:href="#DejaVuSans-52" transform="translate(635 0)"/>
     <use xlink:href="#DejaVuSans-3" transform="translate(696.1875 0)"/>
     <use xlink:href="#DejaVuSans-33" transform="translate(727.96875 0)"/>
     <use xlink:href="#DejaVuSans-9" transform="translate(788.265625 0)"/>
     <use xlink:href="#DejaVuSans-2f" transform="translate(866.25 0)"/>
    </g>
   </g>
  </g>
 </g>
 <defs>
  <clipPath id="pad84fd6da5">
   <rect x="66.682344" y="26.16" width="714.456718" height="364.04"/>
  </clipPath>
 </defs>
</svg>
